HIERARCHY
ROOT root     
{
	OFFSET 0.0000 0.0000 0.0000
	CHANNELS 6 Xposition Yposition Zposition Zrotation Yrotation Xrotation
	JOINT pelvis   
	{
		OFFSET 0.0000 0.0000 0.0000
		CHANNELS 3 Zrotation Yrotation Xrotation
		JOINT thorax   
		{
			OFFSET 0.0000 23.0750 -5.0000
			CHANNELS 3 Zrotation Yrotation Xrotation
			JOINT rclavicle
			{
				OFFSET 0.0000 28.0009 0.0000
				CHANNELS 3 Zrotation Yrotation Xrotation
				JOINT rhumerus 
				{
					OFFSET -18.5725 5.5939 0.0000
					CHANNELS 3 Zrotation Yrotation Xrotation
					JOINT rradius  
					{
						OFFSET -24.8459 0.0000 0.0000
						CHANNELS 3 Zrotation Yrotation Xrotation
						JOINT rhand    
						{
							OFFSET -24.5477 0.0000 0.0000
							CHANNELS 3 Zrotation Yrotation Xrotation
							End Site
							{
								OFFSET -8.1826 0.0000 0.0000
							}
						}
					}
				}
			}
			JOINT lclavicle
			{
				OFFSET 0.0000 28.0009 0.0000
				CHANNELS 3 Zrotation Yrotation Xrotation
				JOINT lhumerus 
				{
					OFFSET 18.5725 5.5939 0.0000
					CHANNELS 3 Zrotation Yrotation Xrotation
					JOINT lradius  
					{
						OFFSET 24.8459 0.0000 0.0000
						CHANNELS 3 Zrotation Yrotation Xrotation
						JOINT lhand    
						{
							OFFSET 24.5477 0.0000 0.0000
							CHANNELS 3 Zrotation Yrotation Xrotation
							End Site
							{
								OFFSET 8.1826 0.0000 0.0000
							}
						}
					}
				}
			}
			JOINT head     
			{
				OFFSET 0.0000 35.2030 0.0000
				CHANNELS 3 Zrotation Yrotation Xrotation
				End Site
				{
					OFFSET 0.0000 11.7343 0.0000
				}
			}
		}
		JOINT rfemur   
		{
			OFFSET -8.2817 0.0000 0.0000
			CHANNELS 3 Zrotation Yrotation Xrotation
			JOINT rtibia   
			{
				OFFSET 0.0000 -43.3627 0.0000
				CHANNELS 3 Zrotation Yrotation Xrotation
				JOINT rfoot    
				{
					OFFSET 0.0000 -38.2947 0.0000
					CHANNELS 3 Zrotation Yrotation Xrotation
					JOINT rtoes    
					{
						OFFSET 0.0000 0.0000 16.6054
						CHANNELS 3 Zrotation Yrotation Xrotation
						End Site
						{
							OFFSET 0.0000 0.0000 5.5351
						}
					}
				}
			}
		}
		JOINT lfemur   
		{
			OFFSET 8.2817 0.0000 0.0000
			CHANNELS 3 Zrotation Yrotation Xrotation
			JOINT ltibia   
			{
				OFFSET 0.0000 -43.3627 0.0000
				CHANNELS 3 Zrotation Yrotation Xrotation
				JOINT lfoot    
				{
					OFFSET 0.0000 -38.2947 0.0000
					CHANNELS 3 Zrotation Yrotation Xrotation
					JOINT ltoes    
					{
						OFFSET 0.0000 0.0000 16.6054
						CHANNELS 3 Zrotation Yrotation Xrotation
						End Site
						{
							OFFSET 0.0000 0.0000 5.5351
						}
					}
				}
			}
		}
	}
}
MOTION
Frames: 19
Frame Time: .0333333
92.784 74.128 12.993 -47.9518 -86.43 75.6997 0 -0 0 0.0950603 -10.0955 21.2048 19.0423 -13.3634 -2.86343e-05 62.7976 -17.9569 9.94081 0 72.1926 0 -4.1984 2.70394 -0.099098 -10.7095 14.9842 -2.44127e-05 -42.1422 -13.3227 1.6453 180 -83.6592 -180 -9.76947 -0.0566 0.00479996 6.16218 3.98307 -15.1666 19.6835 -11.1436 -78.9894 -0 -0 48.0779 2.23241e-05 -15.5515 -8.32127 2.30637 2.10109e-05 -27.4191 -2.30369 16.2445 -43.4172 -0 -0 71.2945 3.7447e-05 10.4753 -21.4432 -3.86683 -1.07636e-05 -55.0092 
91.244 74.086 12.978 -39.7946 -86.3843 67.2311 0 -0 0 0.770856 -10.5385 21.0106 18.9296 -13.8163 -9.0752e-05 62.7923 -18.8978 9.21708 -0 72.9031 -0 -3.93583 2.64083 -0.0907984 -10.3263 15.2929 -5.23536e-05 -41.7374 -13.2679 1.74085 180 -83.1846 -180 -9.81936 -0.122902 0.0106002 5.97858 3.83776 -15.3087 20.2136 -11.8303 -79.0432 -0 -0 45.9358 -1.11008e-05 -14.986 -7.57956 2.0222 -3.68057e-06 -32.0591 -1.96534 16.1145 -41.628 -0 -0 70.7005 5.3139e-05 10.1394 -21.2491 -3.70857 2.88771e-05 -56.4051 
89.673 74.028 12.976 -31.2605 -86.2779 58.3691 0 -0 0 1.45047 -10.9676 20.7896 18.8145 -14.2446 1.38608e-05 62.7962 -19.8656 8.48664 0 73.6491 0 -3.65587 2.61857 -0.0835984 -9.9518 15.5994 -5.5788e-06 -41.3719 -13.1695 1.8955 180 -82.7239 -180 -9.87419 -0.187197 0.0161996 5.78053 3.63378 -15.4355 20.69 -12.5863 -79.0449 -0 -0 44.0376 -2.4207e-05 -14.3747 -6.864 1.75438 3.04699e-06 -36.4601 -1.65922 15.9489 -39.7807 -0 -0 70.0303 4.83753e-05 9.83502 -21.0287 -3.55964 9.71736e-07 -57.791 
88.073 73.951 12.985 -22.6996 -86.0945 49.4719 0 -0 0 2.12496 -11.3822 20.5345 18.6991 -14.6507 -9.24714e-05 62.808 -20.8495 7.76836 0 74.4137 0 -3.38065 2.62942 -0.077602 -9.5897 15.9041 3.31242e-07 -41.0257 -13.0279 2.10853 180 -82.2712 -180 -9.93639 -0.248495 0.0215996 5.57254 3.3723 -15.5392 21.092 -13.4028 -79.0081 -0 -0 42.4327 6.79573e-06 -13.7244 -6.15863 1.50083 1.00472e-05 -40.3851 -1.38744 15.753 -37.8857 -0 -0 69.2938 1.09904e-05 9.55112 -20.7541 -3.41205 -1.70123e-05 -59.2393 
86.448 73.855 13.005 -14.4451 -85.8207 40.8817 0 -0 0 2.78479 -11.7817 20.237 18.5841 -15.0312 -3.52157e-05 62.8242 -21.8451 7.0746 0 75.1898 0 -3.12392 2.66202 -0.0726011 -9.24553 16.2113 2.32658e-05 -40.6826 -12.8474 2.37863 180 -81.8078 -180 -10.0086 -0.306902 0.0269008 5.35806 3.05758 -15.6192 21.3916 -14.2643 -78.9485 -0 -0 41.1634 -4.43168e-06 -13.0442 -5.42507 1.25487 2.50755e-05 -43.8085 -1.14989 15.5293 -35.9577 -0 -0 68.5039 7.50015e-05 9.27364 -20.397 -3.25724 1.99767e-05 -60.8008 
84.797 73.739 13.036 -6.76418 -85.4745 32.8664 0 -0 0 3.42302 -12.1642 19.8956 18.4679 -15.3918 2.3979e-05 62.8434 -22.8343 6.42485 1.08261e-06 75.9544 1.38676e-06 -2.90191 2.70741 -0.0686006 -8.92361 16.5189 4.24932e-05 -40.3258 -12.6236 2.69526 180 -81.3414 -180 -10.0959 -0.367403 0.0324997 5.13844 2.69504 -15.6733 21.5679 -15.1583 -78.8841 -0 -0 40.2737 -6.3378e-06 -12.3422 -4.63518 1.01301 6.22278e-06 -46.6516 -0.943752 15.2825 -34.0076 -0 -0 67.6728 -5.21061e-05 8.98597 -19.9411 -3.0871 -2.96334e-06 -62.5048 
83.127 73.6 13.074 0.159999 -85.0651 25.612 0 -0 0 4.03509 -12.5272 19.5084 18.3522 -15.7279 2.7212e-05 62.8634 -23.8048 5.82687 -1.02947e-06 76.7072 -8.14586e-07 -2.71568 2.75507 -0.065299 -8.63008 16.8327 4.17988e-05 -39.9407 -12.3622 3.05074 180 -80.8558 -180 -10.2027 -0.434303 0.0388006 4.91464 2.2931 -15.7086 21.5956 -16.0639 -78.8272 -0 -0 39.799 -2.56732e-05 -11.6274 -3.74949 0.770995 5.6936e-06 -49.067 -0.762572 15.0117 -32.0486 -0 -0 66.8159 6.58618e-05 8.67197 -19.3736 -2.89652 1.91437e-05 -64.3528 
81.439 73.441 13.12 6.28676 -84.5953 19.1701 0 -0 0 4.62131 -12.868 19.0798 18.235 -16.0393 -1.40134e-05 62.8766 -24.7416 5.28833 -1.53084e-06 77.434 -1.22716e-06 -2.56238 2.79813 -0.0626004 -8.36988 17.1539 6.05292e-05 -39.5168 -12.0604 3.43182 180 -80.3674 -180 -10.3321 -0.514001 0.0464998 4.68551 1.86113 -15.7319 21.4608 -16.9613 -78.792 -0 -0 39.7667 6.00165e-06 -10.9039 -2.75432 0.53041 1.51559e-06 -51.0835 -0.598659 14.7217 -30.0905 -0 -0 65.9431 1.69129e-05 8.31738 -18.6969 -2.68305 6.65548e-05 -66.3112 
79.736 73.26 13.17 11.5949 -84.1095 13.5491 0 -0 0 5.18376 -13.1821 18.6148 18.1181 -16.3215 3.79972e-05 62.8797 -25.6274 4.81265 -0 78.1271 -0 -2.43301 2.8327 -0.0602001 -8.14637 17.4827 1.86229e-05 -39.0502 -11.7153 3.8248 180 -79.8614 -180 -10.4874 -0.6125 0.0562001 4.44999 1.40994 -15.7554 21.1553 -17.832 -78.7832 -0 -0 40.1978 1.40554e-06 -10.1631 -1.66603 0.298606 2.21735e-07 -52.5876 -0.441675 14.4117 -28.1403 -0 -0 65.0665 -1.26335e-05 7.91219 -17.9182 -2.4484 -1.00359e-05 -68.3292 
78.022 73.059 13.223 16.1912 -83.5971 8.65678 0 -0 0 5.72944 -13.4652 18.1243 18.0008 -16.5721 4.23324e-05 62.8655 -26.4485 4.39748 1.39312e-06 78.7874 1.69642e-06 -2.31153 2.8581 -0.0576978 -7.9625 17.8177 -1.73905e-05 -38.5399 -11.3193 4.21554 180 -79.3425 -180 -10.6688 -0.734099 0.0684998 4.20667 0.951387 -15.7934 20.6862 -18.6576 -78.8087 -0 -0 41.0929 5.13743e-07 -9.3989 -0.512801 0.0849002 9.77581e-08 -53.5274 -0.280799 14.0821 -26.2036 -0 -0 64.1915 -2.38578e-05 7.45171 -17.0584 -2.19719 -6.43775e-06 -70.337 
76.3 72.838 13.273 20.0845 -83.0957 4.47888 0 -0 0 6.27233 -13.7107 17.6178 17.8861 -16.784 4.75713e-05 62.8272 -27.1895 4.03505 5.53797e-07 79.4109 1.13943e-06 -2.17911 2.87648 -0.0547004 -7.82091 18.1617 -5.35542e-05 -37.9912 -10.8706 4.59439 180 -78.8194 -180 -10.8735 -0.8792 0.0837006 3.95399 0.498225 -15.8623 20.0673 -19.4162 -78.8611 -0 -0 42.4327 9.35267e-08 -8.60457 0.644396 -0.0974995 2.66311e-07 -53.6954 -0.101481 13.737 -24.2872 -0 -0 63.3236 2.50916e-05 6.93624 -16.138 -1.93673 -2.03394e-05 -72.2632 
74.572 72.6 13.318 23.3606 -82.6327 0.927052 0 -0 0 6.82665 -13.9159 17.1083 17.7775 -16.9526 0.000125966 62.7573 -27.837 3.71738 -1.88365e-06 80.0001 -1.58063e-06 -2.01768 2.89354 -0.0509997 -7.72277 18.5107 -9.67718e-06 -37.4138 -10.3622 4.95245 180 -78.2798 -180 -11.0973 -1.046 0.101601 3.69138 0.062611 -15.9748 19.3319 -20.0932 -78.9377 -0 -0 44.1803 -4.87433e-06 -7.77387 1.71864 -0.234595 2.54067e-06 -52.8157 0.11016 13.3782 -22.3915 -0 -0 62.4654 -6.83532e-06 6.3725 -15.1826 -1.67543 -2.36838e-06 -74.0551 
72.84 72.347 13.353 26.0999 -82.2192 -2.0796 0 -0 0 7.40445 -14.0755 16.6083 17.6809 -17.0746 -9.46804e-05 62.6487 -28.3788 3.43184 1.18972e-06 80.5555 1.40391e-06 -1.81308 2.91596 -0.0461989 -7.66665 18.8605 1.61828e-05 -36.82 -9.78291 5.28143 180 -77.7437 180 -11.3356 -1.23075 0.122199 3.42025 -0.343795 -16.1434 18.5205 -20.6831 -79.0272 -0 -0 46.287 -1.03608e-06 -6.90208 2.60215 -0.314892 3.75643e-06 -50.6086 0.362246 13.0054 -20.5189 -0 -0 61.6161 2.07232e-05 5.77392 -14.2051 -1.42149 -8.65751e-06 -75.6794 
71.108 72.082 13.376 28.3646 -81.8852 -4.60743 0 -0 0 8.02115 -14.1857 16.1284 17.5992 -17.1431 0.000159264 62.4961 -28.803 3.16374 -2.09234e-06 81.0796 -1.78957e-06 -1.55533 2.9508 -0.0401004 -7.65236 19.2074 -8.31724e-05 -36.2256 -9.12765 5.57973 180 -77.2122 -180 -11.5813 -1.42615 0.144594 3.14252 -0.710156 -16.3763 17.6822 -21.1798 -79.1203 -0 -0 48.6821 -1.79832e-06 -6.00172 3.18094 -0.3343 6.63141e-07 -46.8258 0.662117 12.6202 -18.6713 -0 -0 60.7734 1.15669e-05 5.15729 -13.2139 -1.1819 -4.9664e-07 -77.1391 
69.378 71.81 13.384 30.2162 -81.6293 -6.70942 0 -0 0 8.6865 -14.2446 15.6745 17.5408 -17.1594 -2.76435e-06 62.2959 -29.0957 2.90167 1.90109e-06 81.563 2.20378e-06 -1.24198 3.00396 -0.0326 -7.67811 19.5456 1.17122e-05 -35.6473 -8.39148 5.84769 180 -76.6857 -180 -11.8286 -1.62338 0.16819 2.86195 -1.02794 -16.6762 16.8627 -21.5834 -79.203 -0 -0 51.2836 5.39802e-07 -5.09987 3.35837 -0.299496 1.2511e-06 -41.4237 1.01003 12.2189 -16.8562 -0 -0 59.9349 5.76457e-06 4.54251 -12.1998 -0.96191 -7.25319e-06 -78.4647 
67.656 71.535 13.375 31.7274 -81.4737 -8.45651 0 -0 0 9.40529 -14.2499 15.2475 17.5094 -17.1223 -0.00011318 62.0434 -29.2486 2.6336 2.84852e-06 82.0041 3.27647e-06 -0.878799 3.07867 -0.0235997 -7.74062 19.8716 5.71048e-05 -35.1042 -7.57077 6.08862 180 -76.1765 -180 -12.0728 -1.81334 0.191787 2.58371 -1.29059 -17.0392 16.0998 -21.8941 -79.2648 -0 -0 53.9995 -3.1565e-07 -4.24101 3.08812 -0.228901 1.46941e-07 -34.712 1.39808 11.7962 -15.0851 -0 -0 59.1017 1.32617e-05 3.94936 -11.1405 -0.764304 6.65548e-07 -79.7085 
65.948 71.262 13.35 32.9705 -81.4243 -9.91605 0 -0 0 10.1755 -14.2018 14.8451 17.5109 -17.0332 1.38484e-05 61.7389 -29.2526 2.34949 3.00562e-06 82.3959 3.43346e-06 -0.479096 3.17503 -0.0133 -7.83441 20.1771 3.45787e-05 -34.6142 -6.66508 6.30823 180 -75.6847 -180 -12.3099 -1.98809 0.214388 2.31509 -1.49459 -17.4563 15.4142 -22.1108 -79.2908 -0 -0 56.7345 -4.2273e-07 -3.48155 2.39269 -0.145498 5.82767e-07 -27.3943 1.81112 11.3459 -13.3736 -0 -0 58.2757 6.9839e-06 3.3948 -10.0016 -0.590304 2.14538e-06 -80.9303 
64.26 70.997 13.307 34.0168 -81.4662 -11.1387 0 -0 0 10.9932 -14.0991 14.4576 17.549 -16.8981 -5.51495e-05 61.3836 -29.103 2.0442 -2.5298e-06 82.7214 -2.22732e-06 -0.0624996 3.28924 -0.00180001 -7.95356 20.4596 3.58463e-05 -34.1936 -5.67939 6.51471 180 -75.2275 -180 -12.5369 -2.13974 0.235089 2.06327 -1.63922 -17.9097 14.811 -22.2219 -79.2697 -0 -0 59.3935 -1.28052e-06 -2.8834 1.36354 -0.0687008 3.33095e-07 -20.4917 2.2323 10.8588 -11.7507 -0 -0 57.466 -1.0199e-05 2.88884 -8.74177 -0.439393 3.38973e-06 -82.1718 
62.599 70.743 13.248 34.918 -81.6058 -12.1736 0 -0 0 11.8447 -13.9423 14.0795 17.6292 -16.7218 -0.000111275 60.9788 -28.7954 1.71263 2.00302e-06 82.978 2.26492e-06 0.345498 3.41371 0.0103 -8.08876 20.7113 -1.39073e-05 -33.8582 -4.61746 6.7133 180 -74.8053 -180 -12.7535 -2.2663 0.253299 1.83822 -1.72782 -18.3833 14.2841 -22.2263 -79.1854 -0 -0 61.9148 1.61936e-08 -2.48579 0.077701 -0.00339997 1.54699e-08 -14.685 2.64086 10.3249 -10.2369 -0 -0 56.6862 -2.15142e-06 2.4338 -7.31738 -0.310196 -1.70054e-06 -83.4475 
